<?xml version="1.0" encoding="UTF-8"?>
<svg xmlns="http://www.w3.org/2000/svg" width="860" height="294" viewBox="0 0 860 294" role="img" aria-label="Lenguajes de programación utilizados">
  <style>
    .title { font: 600 13px -apple-system, BlinkMacSystemFont, "Segoe UI", Helvetica, Arial, sans-serif; fill: #24292f; }
    .lang  { font: 400 12px -apple-system, BlinkMacSystemFont, "Segoe UI", Helvetica, Arial, sans-serif; fill: #24292f; }
    .value { font: 400 11px ui-monospace, SFMono-Regular, Consolas, monospace; fill: #57606a; }
    .track { fill: #d0d7de; opacity: .45; }
    .card  { fill: #ffffff; stroke: #d0d7de; }
    @media (prefers-color-scheme: dark) {
      .title, .lang { fill: #e6edf3; }
      .value { fill: #8b949e; }
      .track { fill: #30363d; opacity: 1; }
      .card  { fill: #0d1117; stroke: #30363d; }
    }
  </style>
  <rect x="0.5" y="0.5" width="859" height="293" rx="6" class="card"/>
  <text x="22" y="36" class="title">Volumen de código</text>
  <text x="22" y="73" class="lang">JavaScript</text><rect x="118" y="65" width="200" height="9" rx="4.5" class="track"/><rect x="118" y="65" width="200" height="9" rx="4.5" fill="#f1e05a"/><text x="328" y="73" class="value">49.0%</text>
  <text x="22" y="99" class="lang">TypeScript</text><rect x="118" y="91" width="200" height="9" rx="4.5" class="track"/><rect x="118" y="91" width="75" height="9" rx="4.5" fill="#3178c6"/><text x="328" y="99" class="value">18.4%</text>
  <text x="22" y="125" class="lang">Dart</text><rect x="118" y="117" width="200" height="9" rx="4.5" class="track"/><rect x="118" y="117" width="47" height="9" rx="4.5" fill="#00b4ab"/><text x="328" y="125" class="value">11.6%</text>
  <text x="22" y="151" class="lang">Python</text><rect x="118" y="143" width="200" height="9" rx="4.5" class="track"/><rect x="118" y="143" width="33" height="9" rx="4.5" fill="#3572a5"/><text x="328" y="151" class="value">8.1%</text>
  <text x="22" y="177" class="lang">HTML</text><rect x="118" y="169" width="200" height="9" rx="4.5" class="track"/><rect x="118" y="169" width="17" height="9" rx="4.5" fill="#e34c26"/><text x="328" y="177" class="value">4.2%</text>
  <text x="22" y="203" class="lang">CSS</text><rect x="118" y="195" width="200" height="9" rx="4.5" class="track"/><rect x="118" y="195" width="14" height="9" rx="4.5" fill="#663399"/><text x="328" y="203" class="value">3.5%</text>
  <text x="22" y="229" class="lang">C++</text><rect x="118" y="221" width="200" height="9" rx="4.5" class="track"/><rect x="118" y="221" width="11" height="9" rx="4.5" fill="#f34b7d"/><text x="328" y="229" class="value">2.7%</text>
  <text x="22" y="255" class="lang">Astro</text><rect x="118" y="247" width="200" height="9" rx="4.5" class="track"/><rect x="118" y="247" width="7" height="9" rx="4.5" fill="#ff5a03"/><text x="328" y="255" class="value">1.6%</text>
  <text x="452" y="36" class="title">Amplitud de uso</text>
  <text x="452" y="73" class="lang">JavaScript</text><rect x="548" y="65" width="200" height="9" rx="4.5" class="track"/><rect x="548" y="65" width="200" height="9" rx="4.5" fill="#f1e05a"/><text x="758" y="73" class="value">36 repos</text>
  <text x="452" y="99" class="lang">HTML</text><rect x="548" y="91" width="200" height="9" rx="4.5" class="track"/><rect x="548" y="91" width="194" height="9" rx="4.5" fill="#e34c26"/><text x="758" y="99" class="value">35 repos</text>
  <text x="452" y="125" class="lang">CSS</text><rect x="548" y="117" width="200" height="9" rx="4.5" class="track"/><rect x="548" y="117" width="167" height="9" rx="4.5" fill="#663399"/><text x="758" y="125" class="value">30 repos</text>
  <text x="452" y="151" class="lang">TypeScript</text><rect x="548" y="143" width="200" height="9" rx="4.5" class="track"/><rect x="548" y="143" width="94" height="9" rx="4.5" fill="#3178c6"/><text x="758" y="151" class="value">17 repos</text>
  <text x="452" y="177" class="lang">Python</text><rect x="548" y="169" width="200" height="9" rx="4.5" class="track"/><rect x="548" y="169" width="56" height="9" rx="4.5" fill="#3572a5"/><text x="758" y="177" class="value">10 repos</text>
  <text x="452" y="203" class="lang">Dockerfile</text><rect x="548" y="195" width="200" height="9" rx="4.5" class="track"/><rect x="548" y="195" width="33" height="9" rx="4.5" fill="#384d54"/><text x="758" y="203" class="value">6 repos</text>
  <text x="452" y="229" class="lang">Dart</text><rect x="548" y="221" width="200" height="9" rx="4.5" class="track"/><rect x="548" y="221" width="17" height="9" rx="4.5" fill="#00b4ab"/><text x="758" y="229" class="value">3 repos</text>
  <text x="452" y="255" class="lang">C++</text><rect x="548" y="247" width="200" height="9" rx="4.5" class="track"/><rect x="548" y="247" width="17" height="9" rx="4.5" fill="#f34b7d"/><text x="758" y="255" class="value">3 repos</text>
</svg>
